<?xml version="1.0" standalone="no"?>
<!DOCTYPE svg PUBLIC "-//W3C//DTD SVG 1.1//EN" "http://www.w3.org/Graphics/SVG/1.1/DTD/svg11.dtd" >
<svg>
<metadata>
Created by FontForge 20090914 at Thu Nov 25 15:50:04 2010
 By apache
Copyright (c) 2009 by Guifx. All rights reserved.
</metadata>
<defs>
<font id="Guifxv2Transports" horiz-adv-x="801" >
  <font-face 
    font-family="Guifx v2 Transports"
    font-weight="400"
    font-stretch="normal"
    units-per-em="1000"
    panose-1="2 0 0 0 0 0 0 0 0 0"
    ascent="750"
    descent="-250"
    x-height="518"
    cap-height="699.5"
    bbox="50 -100 1061 800.143"
    underline-thickness="50"
    underline-position="-50"
    unicode-range="U+0020-U+007D"
  />
<missing-glyph horiz-adv-x="500" 
 />
    <glyph glyph-name=".notdef" horiz-adv-x="500" 
 />
    <glyph glyph-name="two" unicode="2" horiz-adv-x="710" 
d="M209 700q19 0 32 -13t13 -32v-610q0 -19 -13 -32t-32 -13h-114q-19 0 -32 13t-13 32v610q0 19 13 32t32 13h114zM614 700q19 0 32.5 -13t13.5 -32v-610q0 -19 -13.5 -32t-32.5 -13h-113q-19 0 -32 13t-13 32v610q0 19 13 32t32 13h113z" />
    <glyph glyph-name="three" unicode="3" horiz-adv-x="800" 
d="M705 700q19 0 32 -13t13 -32v-610q0 -19 -13 -32t-32 -13h-610q-19 0 -32 13t-13 32v610q0 19 13 32t32 13h610v0z" />
    <glyph glyph-name="six" unicode="6" horiz-adv-x="929" 
d="M865 372q26 -22 0 -44l-369 -319q-14 -12 -23 -8.5t-9 19.5v660q0 16 9 19t23 -8zM451 372q25 -22 0 -44l-369 -319q-14 -12 -23 -8.5t-9 19.5v660q0 16 9 19t23 -8z" />
    <glyph glyph-name="five" unicode="5" horiz-adv-x="929" 
d="M64 372l369 319q14 11 23 8t9 -19v-660q0 -16 -9 -19.5t-23 8.5l-369 319q-26 22 0 44zM478 372l369 319q14 11 23 8t9 -19v-660q0 -16 -9 -19.5t-23 8.5l-369 319q-25 22 0 44z" />
    <glyph glyph-name="seven" unicode="7" horiz-adv-x="1082" 
d="M159 0h-64q-19 0 -32 13t-13 32v610q0 19 13 32t32 13h64q18 0 31.5 -13t13.5 -32v-610q0 -19 -13.5 -32t-31.5 -13zM586 9l-369 319q-26 22 0 44l369 319q14 11 23 8t9 -19v-660q0 -16 -9 -19.5t-23 8.5zM1000 9l-369 319q-25 22 0 44l369 319q14 11 23 8t9 -19v-660
q0 -16 -9 -19.5t-23 8.5z" />
    <glyph glyph-name="eight" unicode="8" horiz-adv-x="1082" 
d="M923 0q-18 0 -31.5 13t-13.5 32v610q0 19 13.5 32t31.5 13h64q19 0 32 -13t13 -32v-610q0 -19 -13 -32t-32 -13h-64zM496 9q-14 -12 -23 -8.5t-9 19.5v660q0 16 9 19t23 -8l369 -319q26 -22 0 -44zM82 9q-14 -12 -23 -8.5t-9 19.5v660q0 16 9 19t23 -8l369 -319
q25 -22 0 -44z" />
    <glyph glyph-name="quotesingle" unicode="'" 
d="M423 666l319 -369q11 -13 8 -22.5t-19 -9.5h-660q-16 0 -19.5 9.5t8.5 22.5l319 369q22 26 44 0zM87 174h628q36 0 36 -36v-82q0 -36 -36 -36h-628q-36 0 -36 36v82q0 36 36 36z" />
    <glyph glyph-name="nine" unicode="9" horiz-adv-x="805" 
d="M754 361q1 -26 -16 -44.5t-43 -19.5t-44.5 16.5t-20.5 43.5q-2 44 -19 82.5t-48 69.5q-32 33 -73.5 50t-88.5 17q-45 0 -86.5 -17t-73.5 -50q-33 -32 -50.5 -73.5t-17.5 -88.5q0 -45 17.5 -86.5t50.5 -73.5q47 -48 111 -62v94q0 8 6 9t14 -4l226 -150q14 -10 0 -20
l-227 -148q-8 -6 -14 -4.5t-6 9.5v89q-56 8 -106.5 33t-91.5 66q-50 51 -76.5 114.5t-26.5 133.5q0 72 26.5 135.5t76.5 114.5q51 50 114.5 76.5t133.5 26.5q72 0 135.5 -26.5t114.5 -76.5q48 -48 74 -108.5t29 -127.5z" />
    <glyph glyph-name="zero" unicode="0" horiz-adv-x="805" 
d="M754 339q-3 -67 -29 -127.5t-74 -108.5q-51 -50 -114.5 -76.5t-135.5 -26.5q-70 0 -133.5 26.5t-114.5 76.5q-50 51 -76.5 114.5t-26.5 135.5q0 70 26.5 133.5t76.5 114.5q41 41 91.5 66t106.5 33v89q0 8 6 9.5t14 -4.5l227 -148q14 -10 0 -20l-226 -150q-8 -5 -14 -4
t-6 9v94q-64 -14 -111 -62q-33 -32 -50.5 -73.5t-17.5 -86.5q0 -47 17.5 -88.5t50.5 -73.5q32 -33 73.5 -50t86.5 -17q47 0 88.5 17t73.5 50q31 31 48 69.5t19 82.5q2 26 20.5 43.5t44.5 16.5t43 -19.5t16 -44.5z" />
    <glyph glyph-name="less" unicode="&#x3c;" horiz-adv-x="546" 
d="M484 124q12 -12 12 -28.5t-12 -27.5l-56 -56q-11 -12 -27.5 -12t-28.5 12l-310 310q-12 11 -12 28t12 28l310 310q12 12 28.5 12t27.5 -12l56 -56q12 -11 12 -27.5t-12 -28.5l-198 -198q-11 -11 -11 -28t11 -28z" />
    <glyph glyph-name="comma" unicode="," 
d="M372 363q11 -11 28 -11t28 11l198 198q12 12 28.5 12t27.5 -12l56 -56q12 -11 12 -27.5t-12 -28.5l-310 -310q-11 -12 -28 -12t-28 12l-310 310q-12 12 -12 28.5t12 27.5l56 56q11 12 27.5 12t28.5 -12z" />
    <glyph glyph-name="greater" unicode="&#x3e;" horiz-adv-x="546" 
d="M62 576q-12 12 -12 28.5t12 27.5l56 56q11 12 27.5 12t28.5 -12l310 -310q12 -11 12 -28t-12 -28l-310 -310q-12 -12 -28.5 -12t-27.5 12l-56 56q-12 11 -12 27.5t12 28.5l198 198q11 11 11 28t-11 28z" />
    <glyph glyph-name="period" unicode="." horiz-adv-x="800" 
d="M428 337q-11 11 -28 11t-28 -11l-198 -198q-12 -12 -28.5 -12t-27.5 12l-56 56q-12 11 -12 28t12 28l310 310q11 12 28 12t28 -12l310 -310q12 -11 12 -28t-12 -28l-56 -56q-11 -12 -27.5 -12t-28.5 12z" />
    <glyph glyph-name="one" unicode="1" horiz-adv-x="645" 
d="M92 10q-17 -12 -29.5 -8.5t-12.5 19.5v660q0 16 12.5 19t29.5 -8l485 -319q34 -22 0 -44l-485 -319v0z" />
    <glyph glyph-name="d" unicode="d" horiz-adv-x="459" 
d="M78 9q-11 -12 -19.5 -8.5t-8.5 19.5v660q0 16 8.5 19t19.5 -8l319 -319q23 -22 0 -44l-319 -319v0z" />
    <glyph glyph-name="s" unicode="s" 
d="M59 502q-11 11 -8 19t20 8h659q17 0 20 -8t-8 -19l-320 -320q-22 -22 -43 0l-320 320v0z" />
    <glyph glyph-name="S" unicode="S" 
d="M59 375q-11 11 -8 19.5t19 8.5h198v213q0 17 11 28.5t28 11.5h186q17 0 28.5 -11.5t11.5 -28.5v-213h197q16 0 19.5 -8.5t-8.5 -19.5l-319 -319q-21 -21 -44 0l-319 319v0z" />
    <glyph glyph-name="D" unicode="D" horiz-adv-x="712" 
d="M331 9q-11 -11 -19.5 -8t-8.5 19v198h-213q-17 0 -28.5 11t-11.5 28v186q0 17 11.5 28.5t28.5 11.5h213v197q0 16 8.5 19.5t19.5 -8.5l319 -319q23 -21 0 -44l-319 -319v0z" />
    <glyph glyph-name="colon" unicode=":" horiz-adv-x="780" 
d="M63 328q-25 22 0 44l369 319q14 11 23 8t9 -19v-660q0 -16 -9 -19.5t-23 8.5zM684 700q19 0 32.5 -13t13.5 -32v-610q0 -19 -13.5 -32t-32.5 -13h-63q-19 0 -32 13t-13 32v610q0 19 13 32t32 13h63z" />
    <glyph glyph-name="bracketleft" unicode="[" horiz-adv-x="865" 
d="M96 700h63q18 0 31.5 -13t13.5 -32v-610q0 -19 -13.5 -32t-31.5 -13h-63q-19 0 -32.5 13t-13.5 32v610q0 19 13.5 32t32.5 13zM535 9l-320 319q-22 22 0 44l320 319q11 11 19 8t8 -19v-198h214q16 0 27.5 -11t11.5 -28v-186q0 -17 -11.5 -28t-27.5 -11h-214v-198
q0 -16 -8 -19.5t-19 8.5z" />
    <glyph glyph-name="braceleft" unicode="{" horiz-adv-x="668" 
d="M218 328q-26 22 0 44l369 319q13 11 22 8t9 -19v-660q0 -16 -9 -19.5t-22 8.5zM95 0q-19 0 -32 13t-13 32v610q0 19 13 32t32 13h64q19 0 32 -13t13 -32v-610q0 -19 -13 -32t-32 -13h-64z" />
    <glyph glyph-name="braceright" unicode="}" horiz-adv-x="668" 
d="M450 328l-369 -319q-13 -12 -22 -8.5t-9 19.5v660q0 16 9 19t22 -8l369 -319q26 -22 0 -44zM573 0h-64q-19 0 -32 13t-13 32v610q0 19 13 32t32 13h64q19 0 32 -13t13 -32v-610q0 -19 -13 -32t-32 -13z" />
    <glyph glyph-name="four" unicode="4" horiz-adv-x="800" 
d="M750 350q0 -72 -27.5 -136t-75 -111.5t-111.5 -75t-136 -27.5t-136 27.5t-111.5 75t-75 111.5t-27.5 136t27.5 136t75 111.5t111.5 75t136 27.5t136 -27.5t111.5 -75t75 -111.5t27.5 -136z" />
    <glyph glyph-name="bracketright" unicode="]" horiz-adv-x="865" 
d="M769 700q19 0 32.5 -13t13.5 -32v-610q0 -19 -13.5 -32t-32.5 -13h-63q-18 0 -31.5 13t-13.5 32v610q0 19 13.5 32t31.5 13h63zM330 9q-11 -12 -19 -8.5t-8 19.5v198h-214q-16 0 -27.5 11t-11.5 28v186q0 17 11.5 28t27.5 11h214v198q0 16 8 19t19 -8l320 -319
q22 -22 0 -44z" />
    <glyph glyph-name="w" unicode="w" 
d="M742 198q11 -11 8 -19t-20 -8h-659q-17 0 -20 8t8 19l320 320q21 21 43 0l320 -320v0z" />
    <glyph glyph-name="a" unicode="a" horiz-adv-x="459" 
d="M381 691q11 11 19.5 8t8.5 -19v-660q0 -16 -8.5 -19.5t-19.5 8.5l-319 319q-23 22 0 44l319 319v0z" />
    <glyph glyph-name="b" unicode="b" horiz-adv-x="835" 
d="M404 686q5 14 13.5 14t13.5 -14l77 -191q5 -15 20 -25.5t31 -12.5l208 -15q15 -1 17.5 -8.5t-9.5 -17.5l-156 -129q-12 -11 -18 -28.5t-2 -32.5l49 -205q4 -15 -3 -19.5t-20 3.5l-176 114q-13 8 -31.5 8t-31.5 -8l-176 -114q-13 -8 -20 -3.5t-3 19.5l49 205q4 15 -2 32.5
t-18 28.5l-156 129q-12 10 -9.5 17.5t17.5 8.5l208 15q16 2 31 12.5t20 25.5z" />
    <glyph glyph-name="v" unicode="v" horiz-adv-x="933" 
d="M664 700q45 0 85 -17t70 -47t47 -70t17 -85q0 -53 -18 -101.5t-47 -92t-66.5 -82t-76.5 -70.5q-92 -75 -208 -135q-117 60 -209 135q-39 32 -76.5 70.5t-66.5 82t-47 92t-18 101.5q0 45 17 85t47 70t70 47t85 17q33 0 63 -11.5t55.5 -31t45.5 -45t34 -53.5q13 28 33 53.5
t45.5 45t55.5 31t63 11.5z" />
    <glyph glyph-name="p" unicode="p" horiz-adv-x="717" 
d="M659 566q9 -14 7.5 -22t-8 -17t-14.5 -22.5t-12.5 -37.5t-3 -62t14.5 -96q17 -72 8.5 -117.5t-33 -73.5t-60 -42t-72.5 -24t-71.5 -21t-55.5 -31q-22 20 -56 30.5l-71 21t-72.5 24.5t-60 42t-33.5 73t8 118q14 58 15.5 96t-3.5 62t-13 37.5t-14.5 22.5t-8 17t7.5 22
l23.5 37.5t17.5 30.5q8 15 14 28q19 -6 40 -10q18 -4 40.5 -6t45.5 0q24 2 45.5 10.5t38.5 18.5q19 11 36 25q17 -14 36 -25q17 -10 38 -18.5t46 -10.5q23 -2 45 0t40 6q21 4 40 10q6 -13 15 -28l17 -30.5t23 -37.5z" />
    <glyph glyph-name="i" unicode="i" horiz-adv-x="623" 
d="M306 0q-31 33 -37 61.5t0.5 55t21 52t25.5 53.5t12.5 59.5t-16.5 68.5q-1 -26 -12 -46t-26 -38t-32 -36t-30 -40t-19 -50.5t0 -67.5q-25 10 -51.5 27t-48 41t-34 54.5t-8.5 66.5q3 33 14 55.5t24.5 40.5t28.5 33t26.5 32.5t18 40t3.5 54.5q12 -9 23 -21q8 -11 15.5 -26.5
t7.5 -36.5q12 12 16.5 30.5t6.5 41t4 47.5t9.5 50.5t22.5 50.5t43 47q3 -33 16 -59t30 -50.5l36 -49.5t33.5 -55t22.5 -67.5t3 -86.5q9 7 16.5 24t11.5 40t3 49.5t-9 51.5q24 -24 49 -65t37.5 -90.5t6 -102t-46.5 -98.5q-32 -37 -64 -53.5t-61 -27t-52.5 -22t-39.5 -38.5z
" />
    <glyph glyph-name="dollar" unicode="$" horiz-adv-x="1022" 
d="M80 471h142q4 7 8.5 13t9.5 10l166 140q10 8 17 4t7 -16v-272v-272q0 -12 -7 -16t-17 4l-166 140q-5 4 -9.5 10t-8.5 13h-142q-13 0 -21.5 8.5t-8.5 21.5v182q0 13 8.5 21.5t21.5 8.5zM731 793q57 -37 101.5 -85.5t75.5 -105.5t47.5 -121t16.5 -131q0 -68 -16.5 -131.5
t-47.5 -120.5t-75.5 -105.5t-101.5 -85.5q-10 -7 -23 -7q-22 0 -35 19q-10 15 -6 32t18 26q96 63 149.5 161t53.5 212t-53.5 212t-149.5 161q-14 9 -18 26t6 32q9 14 26 18t32 -6zM655 656q76 -52 118.5 -133t42.5 -173t-42.5 -173t-118.5 -133q-11 -8 -24 -8q-22 0 -34 18
q-10 14 -7 31.5t18 27.5q59 41 91.5 103t32.5 134t-32.5 134t-91.5 103q-15 10 -18 27t7 32q10 14 27 17.5t31 -7.5zM581 518q38 -31 59 -75t21 -93t-21 -93t-59 -75q-13 -10 -26 -10q-20 0 -33 16q-11 14 -9.5 31t15.5 28q23 19 36 46t13 57t-13 56.5t-36 46.5
q-14 11 -15.5 28t9.5 31t28 15.5t31 -9.5z" />
    <glyph glyph-name="numbersign" unicode="#" horiz-adv-x="711" 
d="M80 471h142q4 7 8.5 13t9.5 10l166 140q10 8 17 4t7 -16v-272v-272q0 -12 -7 -16t-17 4l-166 140q-5 4 -9.5 10t-8.5 13h-142q-13 0 -21.5 8.5t-8.5 21.5v182q0 13 8.5 21.5t21.5 8.5zM581 518q38 -31 59 -75t21 -93t-21 -93t-59 -75q-13 -10 -26 -10q-20 0 -33 16
q-11 14 -9.5 31t15.5 28q23 19 36 46t13 57t-13 56.5t-36 46.5q-14 11 -15.5 28t9.5 31t28 15.5t31 -9.5z" />
    <glyph glyph-name="at" unicode="@" horiz-adv-x="480" 
d="M406 634q10 8 17 4t7 -16v-272v-272q0 -12 -7 -16t-17 4l-166 140q-5 4 -9.5 10t-8.5 13h-142q-13 0 -21.5 8.5t-8.5 21.5v182q0 13 8.5 21.5t21.5 8.5h142q4 7 8.5 13t9.5 10l166 140v0z" />
    <glyph glyph-name="c" unicode="c" horiz-adv-x="563" 
d="M484 700q12 0 20.5 -8.5t8.5 -20.5v-3q0 -12 -8.5 -20.5t-20.5 -8.5h-405q-12 0 -20.5 8.5t-8.5 20.5v3q0 12 8.5 20.5t20.5 8.5h405zM484 61q12 0 20.5 -8.5t8.5 -20.5v-3q0 -12 -8.5 -20.5t-20.5 -8.5h-405q-12 0 -20.5 8.5t-8.5 20.5v3q0 12 8.5 20.5t20.5 8.5h405z
M72 80q0 48 12.5 84t31 62t40.5 44.5t40.5 32.5t31 24.5t12.5 22.5q0 11 -12.5 22.5t-31 25t-40.5 32t-40.5 44.5t-31 61.5t-12.5 84.5h418q0 -48 -12.5 -84t-31 -62t-40 -44.5t-40 -32t-31 -25t-12.5 -22.5q0 -12 12.5 -23t31 -24.5t40 -32t40 -44.5t31 -62t12.5 -84h-418z
M258 417q10 -8 23.5 -8t22.5 8l45 34q9 7 7.5 12t-13.5 5h-123q-12 0 -14 -5t8 -12zM186 154q-11 -11 -8 -19t20 -8h167q16 0 19 8t-8 19l-67 68q-11 11 -27.5 11t-27.5 -11z" />
    <glyph glyph-name="asciicircum" unicode="^" 
d="M50 348q13 6 36 9t47.5 3t47 -3t36.5 -9v-295q-10 -6 -29 -8.5t-39.5 -2.5t-40 2.5t-29.5 8.5q-1 42 -4 79t-7 72t-9 70.5t-9 73.5zM632 243q28 0 48.5 2t37.5 5q8 -21 5 -38q-2 -6 -4 -10q-8 -14 -33 -19t-74 -5h-20q-18 -1 -33 -0.5t-28 4.5q-24 7 -24 31q0 12 10 23.5
t23 12.5q1 0 1.5 -0.5t1.5 -0.5q12 -4 24.5 -5t26.5 -1q5 0 9 0.5t9 0.5h20zM688 405q40 -8 52 -30.5t10 -51.5q0 -4 -1 -8q-1 -7 -5 -16q-8 -14 -33 -21t-79 -7h-20q-18 0 -33 0.5t-28 3.5q-24 7 -24 32q0 12 9 20.5t22 8.5h134q-3 8 -7 14q-4 5 -11.5 10t-19.5 5h-96
q-25 0 -42.5 -17t-17.5 -41q0 -25 13 -39q-14 -8 -23.5 -23t-9.5 -32q0 -26 17 -43q-11 -8 -18.5 -20t-7.5 -27q0 -23 15 -40q-11 -8 -18 -20.5t-7 -27.5t6 -27q-41 2 -66.5 11.5t-47.5 20t-45 19t-58 8.5v270q11 38 32 65t47 49.5l53 44t49.5 49t38 64.5t17.5 90
q33 4 53.5 -11.5t30 -40t9 -55t-9.5 -56.5q-4 -15 -11.5 -27l-15.5 -24t-15.5 -26.5t-11.5 -35.5q-2 -7 1.5 -10.5t14.5 -3.5q16 0 36 1t41 1t42 -1t39 -5zM593 59q21 0 42 1.5t38 6.5q3 -8 3 -21.5t-10 -26.5t-40 -16t-75 -3q-6 0 -17 1.5t-21.5 5t-18 10.5t-7.5 18t8 19
t19 10q12 -4 23 -5t22 -1q4 0 7.5 0.5t7.5 0.5h19zM612 149q14 0 39 1t48 8q6 -16 5 -27.5t-9 -23.5q-4 -6 -15 -9.5t-26 -6t-31 -3t-30 -0.5l-20 -1q-16 0 -31 1.5t-24 4.5q-11 5 -15.5 11.5t-4.5 18.5t9 20.5t23 8.5l16 -2q7 -1 14.5 -1h13.5h18h20z" />
    <glyph glyph-name="percent" unicode="%" horiz-adv-x="802" 
d="M80 649q10 6 29 9t40 3t39.5 -3t29.5 -9v-296q-14 -6 -36.5 -9t-47.5 -3t-48 3t-36 9q4 39 9 74t9 70.5t7 72.5t5 79zM249 636q35 0 59.5 7.5t48.5 17.5t52 19.5t71 14.5q85 8 131.5 3t57.5 -19q9 -11 10.5 -19t0.5 -14.5t-2.5 -12.5t0.5 -12q4 -13 11.5 -19.5
t10.5 -20.5q2 -12 1 -19t-2.5 -11.5t-3 -8.5t0.5 -11q1 -7 5 -11t9 -8t9.5 -10t6.5 -16q3 -12 1.5 -20t-3.5 -14t-4 -11t0 -11q1 -6 6 -11.5t10 -12t9.5 -14.5t5.5 -20q2 -24 -9 -41t-51 -30q-17 -6 -38 -8t-42.5 -2t-42 0.5t-36.5 0.5q-11 0 -14.5 -3.5t-1.5 -10.5
q4 -21 11.5 -36t15.5 -27l15.5 -23.5t11.5 -27.5q9 -26 9.5 -56.5t-8.5 -55t-29.5 -40t-54.5 -11.5q-3 53 -18.5 90.5t-38 65t-49.5 49l-53 44t-47 49.5t-32 66v271z" />
    <glyph glyph-name="g" unicode="g" horiz-adv-x="800" 
d="M705 700q19 0 32 -13t13 -32v-610q0 -19 -13 -32t-32 -13h-610q-19 0 -32 13t-13 32v610q0 19 13 32t32 13h610zM373 481h-202q-20 0 -33 -15t-13 -32v-100v-101h46v101h202v46h-202v54h202v47zM675 252l-229 229l-33 -33l98 -98l-98 -98l33 -33l98 98l98 -98zM675 448
l-33 33l-75 -75l33 -33z" />
    <glyph glyph-name="q" unicode="q" horiz-adv-x="799" 
d="M610 629q67 -51 103 -123.5t36 -155.5q0 -72 -27.5 -136t-75 -111.5t-111 -75t-135.5 -27.5t-136 27.5t-111.5 75t-75 111.5t-27.5 136q0 83 36 155.5t103 123.5q16 12 36 9.5t31 -19.5q12 -17 9.5 -36t-18.5 -32q-48 -36 -74 -89t-26 -112q0 -53 20 -99t54 -80t80 -54
t99 -20q52 0 98 20t80 54t54 80t20 99q0 59 -26 112t-74 89q-16 13 -18.5 32t9.5 36q11 17 31 19.5t36 -9.5zM400 319q-20 0 -34.5 14t-14.5 34v356q0 20 14.5 34t34.5 14t34 -14t14 -34v-356q0 -20 -14 -34t-34 -14z" />
    <glyph glyph-name="semicolon" unicode=";" 
d="M71 435h660q16 0 19 -9.5t-8 -22.5l-319 -369q-22 -26 -44 0l-319 369q-12 13 -8.5 22.5t19.5 9.5zM715 526h-628q-36 0 -36 36v82q0 36 36 36h628q36 0 36 -36v-82q0 -36 -36 -36z" />
    <glyph glyph-name="quotedbl" unicode="&#x22;" horiz-adv-x="780" 
d="M348 691l369 -319q25 -22 0 -44l-369 -319q-14 -12 -23 -8.5t-9 19.5v660q0 16 9 19t23 -8zM96 700h63q19 0 32 -13t13 -32v-610q0 -19 -13 -32t-32 -13h-63q-19 0 -32.5 13t-13.5 32v610q0 19 13.5 32t32.5 13z" />
    <glyph glyph-name="x" unicode="x" 
d="M620 0q-7 0 -14 5l-205 206l-206 -206q-5 -5 -13 -5t-13 5l-113 113q-5 5 -5 13t5 13l206 206l-206 206q-5 5 -5 13t5 13l113 112q4 6 13 6q8 0 13 -6l206 -205l205 205q6 6 14 6t13 -6l112 -112q6 -5 6 -13q0 -9 -6 -13l-205 -206l205 -206q6 -5 6 -13t-6 -13l-112 -113
q-5 -5 -13 -5z" />
    <glyph glyph-name="ampersand" unicode="&#x26;" horiz-adv-x="1039" 
d="M79 631h184q27 0 50.5 -10.5t40.5 -23.5q20 -15 37 -33q5 -7 12 -15q6 -7 13.5 -17t17.5 -21l-49.5 -60l-48.5 -58q-23 28 -30 33q-11 10 -19 19.5t-17 16.5t-21.5 11.5t-31.5 4.5h-138q-12 0 -20.5 8.5t-8.5 20.5v95q0 12 8.5 20.5t20.5 8.5zM603 307l15 -19.5t8 -9.5
q7 -8 13.5 -17t17 -17t28 -13t45.5 -5h103v56q0 12 6 14t14 -6l127 -127q9 -8 9 -14.5t-9 -15.5l-127 -127q-8 -8 -14 -5.5t-6 14.5v56h-155q-31 0 -54.5 10t-40.5 23q-19 14 -34 33q-6 6 -12 14l-13.5 16.5l-17.5 21.5l48.5 59.5zM79 222h138q19 0 31.5 4.5t21.5 11.5
t17 16.5t19 19.5q3 3 15.5 17l30.5 35l39.5 47l43.5 52l114 138q15 18 34 33q17 12 40.5 22.5t54.5 10.5h155v56q0 12 6 14.5t14 -6.5l127 -127q9 -8 9 -14.5t-9 -14.5l-127 -127q-8 -9 -14 -6.5t-6 14.5v56h-103q-28 0 -45.5 -5t-28 -13t-17 -17t-13.5 -17q-3 -3 -14 -17
l-28 -35l-38 -46l-42 -51l-113 -137q-17 -19 -37 -34q-17 -13 -40.5 -23t-50.5 -10h-184q-12 0 -20.5 8.5t-8.5 20.5v95q0 12 8.5 20.5t20.5 8.5z" />
    <glyph glyph-name="asterisk" unicode="*" horiz-adv-x="1111" 
d="M285 379q0 -31 -22 -53t-53 -22q-32 0 -53.5 22t-21.5 53v35q0 45 17 84t46.5 68.5t68.5 46.5t84 17h499v55q0 12 6 14.5t15 -5.5l125 -125q8 -9 8 -15t-8 -15l-125 -125q-9 -8 -15 -5.5t-6 14.5v57h-499q-28 0 -47 -19.5t-19 -46.5v-35zM987 404q31 0 52.5 -21.5
t21.5 -53.5v-34q0 -45 -17 -84t-46 -68.5t-68 -46.5t-84 -17h-500v-55q0 -12 -6 -14.5t-14 5.5l-125 125q-8 8 -8 14.5t8 14.5l125 125q8 9 14 6.5t6 -14.5v-57h500q27 0 46.5 19t19.5 47v34q0 32 21.5 53.5t53.5 21.5z" />
    <glyph glyph-name="parenleft" unicode="(" horiz-adv-x="1111" 
d="M351 630h499v55q0 12 6 14.5t15 -5.5l125 -126q8 -8 8 -14t-8 -15l-125 -125q-9 -8 -15 -5.5t-6 14.5v57h-499q-28 0 -47 -19.5t-19 -46.5v-35q0 -2 -0.5 -4.5t-0.5 -5.5q-33 11 -66 11q-42 0 -81 -17q-1 5 -1.5 8.5t-0.5 7.5v35q0 45 17 84t46.5 68.5t68.5 46.5t84 17z
M421 229h425q27 0 46.5 19t19.5 47v34q0 32 21.5 53.5t53.5 21.5q31 0 52.5 -21.5t21.5 -53.5v-34q0 -45 -17 -84t-46 -68.5t-68 -46.5t-84 -17h-436q20 42 20 89q0 32 -9 61zM218 337q35 0 65.5 -13.5t53.5 -36.5t36.5 -53.5t13.5 -65.5t-13.5 -65.5t-36.5 -53.5t-53.5 -36
t-65.5 -13t-65.5 13t-53.5 36t-36 53.5t-13 65.5t13 65.5t36 53.5t53.5 36.5t65.5 13.5zM245 269h-31q-6 -17 -24 -32q-17 -12 -33 -19v-35q14 5 26.5 12t23.5 18v-146h38v202z" />
    <glyph glyph-name="parenright" unicode=")" horiz-adv-x="800" 
d="M432 635q28 -29 44 -64t20 -72.5t-5 -74.5t-30 -69q15 2 30.5 -3.5t27.5 -16.5l211 -212q21 -20 21 -49.5t-21 -50.5l-2 -2q-21 -21 -50.5 -21t-49.5 21l-212 211q-12 12 -17 27t-3 31q-32 -21 -69 -30t-74.5 -5t-73 19.5t-63.5 44.5q-33 33 -49 74t-16 84t16 84t49 74
t74 49t84 16t84 -16t74 -49zM388 363q23 24 34.5 53.5t11.5 60.5t-11.5 60.5t-34.5 53.5q-24 23 -53.5 34.5t-60.5 11.5t-60.5 -11.5t-53.5 -34.5q-23 -24 -35 -53.5t-12 -60.5t12 -60.5t35 -53.5q24 -23 53.5 -35t60.5 -12t60.5 12t53.5 35z" />
    <glyph glyph-name="plus" unicode="+" 
d="M730 123q21 -20 21 -49.5t-21 -50.5l-2 -2q-21 -21 -50.5 -21t-49.5 21l-212 211q-12 12 -17 27t-3 31q-32 -21 -69 -30t-74.5 -5t-73 19.5t-63.5 44.5q-33 33 -49 74t-16 84t16 84t49 74t74 49t84 16t84 -16t74 -49q28 -29 44 -64t20 -72.5t-5 -74.5t-30 -69
q15 2 30.5 -3.5t27.5 -16.5zM388 363q23 24 34.5 53.5t11.5 60.5t-11.5 60.5t-34.5 53.5q-24 23 -53.5 34.5t-60.5 11.5t-60.5 -11.5t-53.5 -34.5q-23 -24 -35 -53.5t-12 -60.5t12 -60.5t35 -53.5q24 -23 53.5 -35t60.5 -12t60.5 12t53.5 35zM370 511q6 0 10.5 -4t4.5 -10
v-43q0 -6 -4.5 -10t-10.5 -4h-59v-60q0 -5 -4 -9.5t-10 -4.5h-43q-6 0 -10.5 4.5t-4.5 9.5v60h-59q-14 0 -14 14v43q0 14 14 14h59v60q0 5 4.5 9.5t10.5 4.5h43q6 0 10 -4.5t4 -9.5v-60h59z" />
    <glyph glyph-name="underscore" unicode="_" 
d="M730 123q21 -20 21 -49.5t-21 -50.5l-2 -2q-21 -21 -50.5 -21t-49.5 21l-212 211q-12 12 -17 27t-3 31q-32 -21 -69 -30t-74.5 -5t-73 19.5t-63.5 44.5q-33 33 -49 74t-16 84t16 84t49 74t74 49t84 16t84 -16t74 -49q28 -29 44 -64t20 -72.5t-5 -74.5t-30 -69
q15 2 30.5 -3.5t27.5 -16.5zM388 363q23 24 34.5 53.5t11.5 60.5t-11.5 60.5t-34.5 53.5q-24 23 -53.5 34.5t-60.5 11.5t-60.5 -11.5t-53.5 -34.5q-23 -24 -35 -53.5t-12 -60.5t12 -60.5t35 -53.5q24 -23 53.5 -35t60.5 -12t60.5 12t53.5 35zM370 511q6 0 10.5 -4t4.5 -10
v-43q0 -6 -4.5 -10t-10.5 -4h-190q-14 0 -14 14v43q0 14 14 14h190z" />
    <glyph glyph-name="z" unicode="z" horiz-adv-x="839" 
d="M50 278q42 49 74.5 55.5t57.5 -13t43.5 -58t31.5 -79.5q90 142 180 239.5t163 159.5q85 72 164 118l25 -27q-81 -62 -148 -131.5t-124.5 -145.5t-106.5 -156.5t-94 -163.5q-19 -11 -38 -24.5l-34 -24.5l-35 -27q-12 51 -33 101q-18 43 -48.5 91t-77.5 86z" />
    <glyph glyph-name="bar" unicode="|" horiz-adv-x="895" 
d="M794 56q27 5 44 19l-3 -21v-1v-1q-8 -37 -46 -42l-1 -1h-1q-1 0 -32 -1.5t-79.5 -3t-108.5 -3t-119 -1.5t-119 1.5t-109 3t-79.5 3t-31.5 1.5h-1l-2 1q-38 5 -46 42v1v1q0 1 -0.5 6l-1.5 15q17 -14 44 -19h2h3q1 0 32 -1.5t79.5 -3.5t109 -3.5t120.5 -1.5q59 0 119.5 1.5
t109 3.5t79.5 3.5t32 1.5h3h3zM60 140q0 2 -5 64t-5 189t5 189t5 64v1v1q8 37 46 42h2l1 1q1 0 31.5 1.5t79.5 3t109 3t119 1.5t119 -1.5t108.5 -3t79.5 -3t32 -1.5l1 -1h1q38 -5 46 -42v-1v-1q1 -2 5.5 -64t4.5 -189t-4.5 -189t-5.5 -64v-1v-1q-8 -37 -46 -42h-1h-1
q-1 0 -22.5 -1.5t-57 -3t-82 -2.5l-95.5 -2v273h122q10 0 12.5 5t-5.5 12l-198 198q-13 14 -27 0l-198 -198q-7 -7 -5 -12t12 -5h123v-273l-96 2t-81.5 2.5t-57.5 3l-22 1.5h-1h-2q-38 5 -46 42v1v1z" />
    <glyph glyph-name="backslash" unicode="\" horiz-adv-x="895" 
d="M102 644q-27 -5 -44 -19l1.5 15t0.5 6v1v1q8 37 46 42h2l1 1q1 0 31.5 1.5t79.5 3t109 3t119 1.5t119 -1.5t108.5 -3t79.5 -3t32 -1.5l1 -1h1q38 -5 46 -42v-1v-1l3 -21q-17 14 -44 19h-3h-3q-1 0 -32 1.5t-79.5 3.5t-109 3.5t-119.5 1.5q-60 0 -120.5 -1.5t-109 -3.5
t-79.5 -3.5t-32 -1.5h-3h-2zM835 560q1 -3 5.5 -64.5t4.5 -188.5q0 -128 -4.5 -189.5t-5.5 -63.5v-1v-1q-8 -37 -46 -42l-1 -1h-1q-1 0 -32 -1.5t-79.5 -3t-108.5 -3t-119 -1.5t-119 1.5t-109 3t-79.5 3t-31.5 1.5h-1l-2 1q-38 5 -46 42v1v1q0 2 -5 63.5t-5 189.5
q0 127 5 188.5t5 64.5v1v1q8 36 46 42h2h1l22 1l57.5 2.5t81.5 3t96 2.5v-273h-123q-10 0 -12 -5t5 -12l198 -198q14 -14 27 0l198 198q8 7 5.5 12t-12.5 5h-122v273q49 -1 95.5 -2.5t82 -3t57 -2.5t22.5 -1h1h1q38 -6 46 -42v-1v-1z" />
    <glyph glyph-name="A" unicode="A" horiz-adv-x="712" 
d="M381 9l-319 319q-23 23 0 44l319 319q11 12 19.5 8.5t8.5 -19.5v-197h213q17 0 28.5 -11.5t11.5 -28.5v-186q0 -17 -11.5 -28t-28.5 -11h-213v-198q0 -16 -8.5 -19t-19.5 8z" />
    <glyph glyph-name="W" unicode="W" 
d="M59 325l319 319q23 21 44 0l319 -319q12 -11 8.5 -19.5t-19.5 -8.5h-197v-213q0 -17 -11.5 -28.5t-28.5 -11.5h-186q-17 0 -28 11.5t-11 28.5v213h-198q-16 0 -19 8.5t8 19.5z" />
    <glyph glyph-name="space" unicode=" " horiz-adv-x="350" 
 />
    <glyph glyph-name="o" unicode="o" horiz-adv-x="800" 
d="M705 465q19 0 32 -13t13 -32v-140q0 -19 -13 -32t-32 -13h-190v-190q0 -19 -13 -32t-32 -13h-140q-19 0 -32 13t-13 32v190h-190q-19 0 -32 13t-13 32v140q0 19 13 32t32 13h190v190q0 19 13 32t32 13h140q19 0 32 -13t13 -32v-190h190v0z" />
    <glyph glyph-name="equal" unicode="=" horiz-adv-x="800" 
d="M310 5q-4 4 -4 11v240h-240q-7 0 -11 4q-5 5 -5 12v156q0 16 16 16h240v240q0 16 16 16h156q6 0 11 -5q5 -4 5 -11v-240h240q7 0 11 -5q5 -5 5 -11v-156q0 -7 -5 -12q-4 -4 -11 -4h-240v-240q0 -16 -16 -16h-156q-7 0 -12 5z" />
    <glyph glyph-name="hyphen" unicode="-" horiz-adv-x="800" 
d="M745 260q-4 -4 -11 -4h-668q-16 0 -16 16v156q0 6 5 11q4 5 11 5h668q16 0 16 -16v-156q0 -7 -5 -12z" />
    <glyph glyph-name="exclam" unicode="!" horiz-adv-x="998" 
d="M818 669q63 -66 96.5 -147.5t33.5 -171.5q0 -91 -33.5 -172.5t-96.5 -147.5q-66 -63 -147.5 -96t-171.5 -33q-91 0 -172.5 33t-147.5 96q-63 66 -96 147.5t-33 172.5q0 90 33 171.5t96 147.5q66 63 147.5 96.5t172.5 33.5q90 0 171.5 -33.5t147.5 -96.5zM142 350
q0 -61 17.5 -115t51.5 -104l115 107h-35q-13 0 -20 9t-7 20v166q0 10 7 19.5t20 9.5h123q2 0 6.5 3.5t20.5 17.5l49 41.5l92 75.5q9 7 15.5 4.5t6.5 -13.5v-76l114 122q-100 70 -219 70q-75 0 -140 -28t-113 -76t-76 -113t-28 -140zM499 -7q75 0 140 28t113 76t76 113
t28 140q0 119 -70 219l-182 -180v-280q0 -11 -6.5 -13.5t-15.5 2.5l-150 123l-152 -159q50 -34 104 -51.5t115 -17.5z" />
    <glyph glyph-name="question" unicode="?" 
d="M423 467l319 -369q11 -14 8 -23t-19 -9h-660q-16 0 -19.5 9t8.5 23l319 369q22 25 44 0zM751 589v-64q0 -19 -13 -32t-32 -13h-610q-19 0 -32 13t-13 32v64q0 19 13 32t32 13h610q19 0 32 -13t13 -32z" />
    <glyph glyph-name="slash" unicode="/" 
d="M423 233q-22 -25 -44 0l-319 369q-12 14 -8.5 23t19.5 9h660q16 0 19 -9t-8 -23zM751 111q0 -19 -13 -32t-32 -13h-610q-19 0 -32 13t-13 32v64q0 19 13 32t32 13h610q19 0 32 -13t13 -32v-64z" />
  </font>
</defs>
</svg>
